<?xml version="1.0" encoding="UTF-8"?>
<svg id="Layer_2" data-name="Layer 2" xmlns="http://www.w3.org/2000/svg" viewBox="0 0 196.02 156.69">
  <defs>
    <style>
      .cls-1 {
        fill: #364ca0;
      }

      .cls-2 {
        fill: #f3865b;
      }

      .cls-3 {
        fill: #414042;
      }
    </style>
  </defs>
  <g id="Layer_1-2" data-name="Layer 1">
    <g>
      <g>
        <path class="cls-1" d="M23.75,19.75c4.19,1.22,8.27,2.4,12.35,3.59,0,.09-.02,.18-.02,.27-1.96,.19-3.92,.5-5.89,.54-1.42,.03-1.84,.65-2.09,1.95-1.94,10.23-3.94,20.46-5.95,30.68-2.12,10.76-4.29,21.52-6.42,32.28-2.07,10.44-4.11,20.88-6.19,31.31-.22,1.09-.06,1.7,1.08,2.16,2.61,1.06,5.15,2.28,8.02,3.58,4.92-25.67,9.8-51.14,14.68-76.6,.08,.01,.17,.03,.25,.04-.61,4.67-1.22,9.33-1.83,14-1.86,14.07-3.72,28.14-5.59,42.2-.95,7.09-1.91,14.17-2.92,21.25-.19,1.32,.08,2.11,1.41,2.72,4.32,2,8.56,4.15,13.11,6.38,.4-2.38,.78-4.53,1.12-6.68,2.18-13.96,4.36-27.93,6.53-41.89,1.98-12.76,3.93-25.53,5.91-38.29,1.21-7.78,2.49-15.54,3.66-23.32,.22-1.43,.94-1.34,1.97-1.12,4.82,1.04,9.65,2.05,14.47,3.06,.21,.04,.43,.04,.79,.07,.48-1.71,.9-3.41,1.43-5.08,1.94-6.18,4.97-11.73,9.72-16.24,9.26-8.8,22.01-8.81,31.23,.08,6.53,6.31,9.84,14.25,11.19,23.08,.41,2.68,.55,5.4,.63,8.11,.03,1.17,.52,1.52,1.5,1.72,2.81,.56,5.61,1.16,8.37,2.06-3.22-.37-6.43-.74-9.8-1.12-.14,.92-.27,1.71-.4,2.55,.63,.22,1.17,.34,1.64,.58,1.2,.62,1.85,1.61,1.64,2.98-.22,1.45-1.28,2.45-2.59,2.36-.97-.06-2.12-.86-2.75-1.67-.87-1.11-.23-2.29,.67-3.27,.45-.49,1.03-1.03,1.14-1.62,.27-1.39-.22-2.12-1.89-2.32-14.98-1.75-29.94-3.61-44.91-5.44-1.65-.2-3.3-.43-4.96-.5-.39-.02-1.05,.48-1.17,.87-.31,1.05-.37,2.18-.57,3.27-.21,1.14-.26,2.05,1.03,2.77,1.18,.65,1.6,2.07,.84,3.18-.57,.84-1.73,1.65-2.71,1.76-1.23,.14-2.28-.77-2.58-2.15-.31-1.37,.18-2.54,1.4-3.06,1.08-.46,1.17-1.05,1.1-2.05-.08-1.27,.13-2.55,.05-3.82-.03-.45-.48-1.22-.82-1.27-3.72-.52-7.46-.92-11.47-1.38-3.77,34.56-7.53,69.02-11.33,103.89,1.1-.53,1.93-.88,2.72-1.31,13.1-7.01,26.72-12.71,41.15-16.4,12.22-3.12,24.62-4.72,37.23-4.15,10.7,.48,21.14,2.41,31.07,6.59,.61,.26,1.22,.54,1.82,.82,.3,.14,.58,.31,1.1,.59-4.08-.93-7.88-1.91-11.72-2.64-9.64-1.84-19.37-2.33-29.16-1.66-12.74,.87-25.13,3.43-37.24,7.44-13.85,4.58-27.03,10.6-39.35,18.43-1.08,.69-1.91,.75-3.03,.24-13.67-6.22-27.36-12.43-41.07-18.57-1.3-.58-1.55-1.22-1.24-2.54,2.69-11.66,5.32-23.34,7.98-35.01,3.56-15.67,7.13-31.34,10.69-47.01,1.52-6.7,3.03-13.4,4.55-20.11,.07-.32,.22-.62,.42-1.18Zm101.71,19.33c0-.67,.06-1.01,0-1.32-.83-3.72-1.45-7.51-2.57-11.15-1.96-6.32-5.09-12.03-9.91-16.69-8.15-7.88-18.65-8.2-27.22-.79-4.69,4.05-7.69,9.25-9.93,14.94-.54,1.37-.96,2.77-1.51,4.37,17.16,3.57,34.04,7.08,51.15,10.64Z"/>
        <g>
          <path class="cls-1" d="M96.92,48.37l.8,22.73,19.76,.7-.75-17.1,10.77,.99,2.11,43.44-10.91,.62-.83-19.07-19.82-.12,.71,20.33-13.41,.76-1.58-54.56,13.15,1.27Z"/>
          <path class="cls-1" d="M136.36,57.05c2.53-.2,7.47-.16,12.09,.27,5.37,.5,8.6,1.31,11.43,3.19,2.61,1.61,4.52,4.31,4.75,7.77,.21,3.3-1.44,6.33-5.45,7.88v.11c4.25,1.23,7.47,4.61,7.79,9.46,.23,3.51-1.06,6.28-3.18,8.33-2.52,2.4-7.03,3.95-14.89,4.41-4.6,.27-8.16,.16-10.37-.03l-2.17-41.38Zm10.27,16.27l2.98,.1c4.7,.16,6.96-1.67,6.78-4.56-.18-2.94-2.47-4.65-6.45-4.92-2.01-.14-3.13-.1-3.85-.03l.53,9.41Zm1.03,18.15c.91,.09,1.99,.06,3.54,0,4.02-.13,7.37-1.83,7.11-5.98-.24-3.91-3.78-5.51-8.2-5.55l-3.11-.03,.66,11.56Z"/>
          <path class="cls-1" d="M170.54,60.12c1.95-.2,5.78-.21,9.39,.12,4.21,.39,6.76,1.08,9.02,2.73,2.09,1.41,3.65,3.8,3.88,6.88,.23,2.94-1.02,5.64-4.16,7.02v.1c3.37,1.09,5.98,4.08,6.31,8.39,.24,3.12-.73,5.58-2.36,7.39-1.94,2.11-5.46,3.46-11.58,3.82-3.57,.21-6.33,.09-8.04-.09l-2.47-36.37Zm8.27,14.28l2.33,.08c3.68,.12,5.42-1.51,5.22-4.07-.19-2.61-2.02-4.11-5.14-4.32-1.57-.11-2.45-.06-3,0l.59,8.31Zm1.14,16c.71,.08,1.55,.06,2.76,.02,3.14-.1,5.74-1.6,5.46-5.27-.26-3.46-3.06-4.88-6.52-4.91l-2.42-.02,.72,10.2Z"/>
        </g>
        <path class="cls-2" d="M126.46,40.52c-.14,.92-.27,1.71-.4,2.55,.63,.22,1.17,.34,1.64,.58,1.2,.62,1.85,1.61,1.64,2.98-.22,1.45-1.28,2.51-2.59,2.36-2.02-.23-2.12-.86-2.75-1.67-.87-1.11-.23-2.29,.67-3.27,.45-.49,1.03-1.03,1.14-1.62,.27-1.39-.22-2.12-1.89-2.32-14.98-1.75-29.94-3.61-44.91-5.44-1.65-.2-3.3-.43-4.96-.5-.39-.02-1.05,.48-1.17,.87-.31,1.05-.37,2.18-.57,3.27-.21,1.14-.26,2.05,1.03,2.77,1.18,.65,1.6,2.07,.84,3.18-.57,.84-1.73,1.65-2.71,1.76-1.23,.14-2.28-.77-2.58-2.15-.31-1.37,.18-2.54,1.4-3.06,1.08-.46,1.17-1.05,1.1-2.05-.08-1.27,.13-2.55,.05-3.82-.03-.45-.48-1.22-.82-1.27-3.72-.52-7.46-.92-11.47-1.38m-2.23-7.53c4.82,1.04,9.65,2.05,14.47,3.06,.21,.04,.43,.04,.79,.07,.48-1.71,.9-3.41,1.43-5.08,1.94-6.18,4.97-11.73,9.72-16.24,9.26-8.8,22.01-8.81,31.23,.08,6.53,6.31,9.84,14.25,11.19,23.08,.41,2.68,.55,5.4,.63,8.11,.03,1.17,.52,1.52,1.5,1.72m-2.42-.5c0-.67,.06-1.01,0-1.32-.83-3.72-1.45-7.51-2.57-11.15-1.96-6.32-5.09-12.03-9.91-16.69-8.15-7.88-18.65-8.2-27.22-.79-4.69,4.05-7.69,9.25-9.93,14.94-.54,1.37-.96,2.77-1.51,4.37,17.16,3.57,34.04,7.08,51.15,10.64Z"/>
        <path class="cls-2" d="M47.09,147.18l4.32,9.52s47.01-36.03,108.33-27.25c-35.06-12.75-72.84-5.08-112.65,17.73Z"/>
      </g>
      <g>
        <path class="cls-3" d="M86.69,107.9l3.54-.5,.1,.71-2.68,.38,.31,2.19,2.48-.35,.1,.7-2.48,.35,.42,2.98-.86,.12-.94-6.58Z"/>
        <path class="cls-3" d="M96.02,110.87c.24,1.75-.89,2.68-2.02,2.83-1.27,.17-2.4-.63-2.6-2.13-.21-1.57,.71-2.65,2.01-2.82,1.36-.18,2.41,.68,2.61,2.12Zm-3.74,.55c.14,1.04,.83,1.74,1.67,1.63,.82-.11,1.34-.97,1.19-2.03-.11-.8-.64-1.76-1.66-1.62-1.01,.14-1.32,1.13-1.2,2.02Z"/>
        <path class="cls-3" d="M96.98,109.89c-.07-.56-.14-1.04-.23-1.47l.75-.1,.16,.93h.03c.13-.67,.61-1.14,1.19-1.21,.09-.01,.16-.01,.24-.01l.11,.81c-.09,0-.18,0-.3,.02-.61,.08-.98,.58-1.01,1.24,0,.12,0,.27,.02,.41l.33,2.52-.86,.11-.42-3.26Z"/>
        <path class="cls-3" d="M102.45,111.62c.28,.12,.75,.25,1.18,.19,.62-.08,.87-.42,.82-.82-.05-.41-.32-.6-.98-.75-.9-.21-1.36-.62-1.43-1.19-.09-.76,.46-1.47,1.46-1.59,.48-.06,.92,.02,1.19,.15l-.13,.65c-.2-.09-.56-.22-1-.16-.51,.06-.75,.39-.7,.74,.05,.39,.34,.54,.99,.7,.85,.2,1.33,.56,1.42,1.27,.1,.84-.48,1.51-1.59,1.64-.52,.06-1.01-.01-1.37-.17l.13-.67Z"/>
        <path class="cls-3" d="M105.76,105.06l.86-.1,.34,2.96h.02c.11-.26,.3-.51,.55-.69,.24-.18,.53-.3,.85-.34,.64-.07,1.7,.2,1.89,1.83l.32,2.82-.86,.1-.31-2.72c-.09-.76-.44-1.37-1.26-1.27-.56,.06-.94,.5-1.05,.98-.04,.13-.03,.26-.01,.42l.33,2.86-.86,.1-.8-6.95Z"/>
        <path class="cls-3" d="M112.28,105.2c.03,.29-.15,.55-.49,.59-.31,.03-.54-.18-.58-.47-.03-.3,.16-.56,.48-.6,.31-.04,.56,.18,.59,.48Zm-.29,6.19l-.52-4.75,.86-.1,.52,4.75-.86,.1Z"/>
        <path class="cls-3" d="M113.93,107.93c-.06-.61-.14-1.1-.2-1.55l.76-.08,.14,.81h.02c.28-.62,.81-1.01,1.59-1.1,1.16-.12,2.13,.75,2.28,2.19,.18,1.71-.78,2.67-1.9,2.79-.63,.07-1.21-.15-1.54-.59h-.02l.28,2.58-.85,.09-.55-5.14Zm.99,1.17c.01,.13,.04,.24,.08,.35,.22,.58,.78,.94,1.4,.87,.91-.1,1.36-.9,1.25-1.99-.1-.94-.69-1.7-1.6-1.61-.59,.06-1.11,.54-1.19,1.2-.02,.11-.03,.24-.02,.35l.09,.82Z"/>
        <path class="cls-3" d="M119.53,107.34c-.06-.61-.13-1.1-.19-1.55l.76-.08,.13,.81h.02c.28-.62,.82-1.01,1.6-1.08,1.16-.12,2.12,.77,2.26,2.2,.17,1.71-.8,2.66-1.91,2.77-.63,.06-1.21-.16-1.54-.6h-.02s.26,2.58,.26,2.58l-.85,.08-.51-5.14Zm.98,1.18c.01,.13,.03,.24,.07,.35,.22,.58,.78,.95,1.4,.88,.91-.09,1.37-.89,1.26-1.98-.09-.94-.68-1.71-1.59-1.61-.59,.06-1.11,.53-1.2,1.19-.02,.11-.04,.24-.02,.35l.08,.82Z"/>
        <path class="cls-3" d="M125.8,103.82c.03,.29-.16,.55-.5,.58-.31,.03-.54-.19-.57-.48-.03-.29,.16-.56,.49-.59,.31-.03,.55,.18,.58,.49Zm-.38,6.18l-.45-4.75,.86-.08,.45,4.75-.86,.08Z"/>
        <path class="cls-3" d="M127.4,106.32c-.04-.5-.09-.89-.15-1.28l.77-.07,.12,.78h.02c.2-.46,.71-.95,1.49-1.02,.66-.06,1.71,.24,1.86,1.87l.25,2.83-.86,.07-.24-2.74c-.07-.76-.41-1.38-1.22-1.31-.56,.05-.97,.49-1.08,.99-.03,.11-.04,.26-.02,.41l.25,2.86-.86,.08-.3-3.47Z"/>
        <path class="cls-3" d="M137.15,108.29c.09,1.1-.08,1.78-.5,2.23-.44,.46-1.09,.66-1.69,.71-.57,.05-1.21-.04-1.61-.26l.16-.68c.33,.18,.84,.32,1.43,.27,.88-.07,1.49-.58,1.4-1.79l-.04-.52h-.02c-.22,.46-.71,.86-1.45,.92-1.18,.1-2.11-.84-2.21-2.15-.13-1.61,.85-2.6,1.95-2.69,.82-.07,1.3,.32,1.55,.7h.02s-.03-.72-.03-.72l.77-.06c0,.34,.02,.73,.06,1.3l.22,2.76Zm-1.04-2.11c-.01-.15-.03-.27-.08-.38-.2-.5-.64-.88-1.28-.83-.82,.07-1.36,.81-1.27,1.91,.08,.93,.62,1.67,1.54,1.6,.54-.04,.99-.42,1.13-.98,.04-.15,.04-.32,.03-.47l-.07-.86Z"/>
        <path class="cls-3" d="M140.21,101.74l.87-.06,.49,6.99-.87,.06-.49-6.99Z"/>
        <path class="cls-3" d="M146.95,106.99c.03,.5,.07,.93,.12,1.31l-.77,.05-.1-.77h-.02c-.19,.4-.67,.93-1.52,.99-.75,.05-1.67-.32-1.78-1.98l-.18-2.79,.87-.06,.17,2.63c.06,.91,.38,1.51,1.16,1.46,.58-.04,.96-.47,1.09-.87,.04-.12,.06-.28,.05-.45l-.19-2.92,.87-.06,.23,3.46Z"/>
        <path class="cls-3" d="M148.56,103.43l.74,.99c.2,.25,.36,.48,.53,.74h.02c.14-.29,.29-.54,.44-.81l.6-1.05,.94-.05-1.49,2.39,1.8,2.37-.97,.05-.77-1.03c-.2-.26-.38-.52-.56-.8h-.02c-.14,.29-.28,.56-.46,.86l-.63,1.11-.96,.05,1.56-2.53-1.75-2.24,.97-.05Z"/>
        <path class="cls-3" d="M156.88,106.48c.02,.5,.05,.93,.1,1.31l-.77,.04-.08-.77h-.02c-.2,.39-.69,.92-1.54,.96-.75,.04-1.67-.35-1.74-2.01l-.13-2.79,.87-.04,.12,2.63c.04,.91,.35,1.51,1.13,1.48,.58-.03,.97-.45,1.11-.85,.04-.12,.07-.28,.06-.45l-.13-2.92,.87-.04,.16,3.46Z"/>
        <path class="cls-3" d="M158.27,104.45c-.02-.56-.05-1.04-.09-1.49l.76-.03,.07,.94h.03c.19-.65,.71-1.07,1.29-1.09,.09,0,.16,0,.24,.01l.03,.82c-.09-.02-.18-.02-.3,0-.61,.02-1.03,.49-1.12,1.15-.02,.12-.02,.27-.02,.4l.09,2.54-.86,.03-.12-3.28Z"/>
        <path class="cls-3" d="M162.05,102.83l1.11,2.79c.13,.31,.25,.68,.34,.97h.02c.08-.29,.17-.66,.28-1.01l.87-2.82,.92-.02-1.21,3.44c-.58,1.65-.98,2.49-1.56,3.03-.42,.38-.83,.54-1.05,.58l-.24-.71c.22-.08,.5-.22,.75-.44,.23-.19,.51-.54,.7-.99,.04-.09,.06-.16,.06-.21,0-.05-.02-.12-.08-.23l-1.87-4.35,.95-.03Z"/>
        <path class="cls-3" d="M168.51,100.47h.86s.02,2.99,.02,2.99h.02c.3-.54,.85-.87,1.62-.88,1.19,0,2.03,.97,2.04,2.41,.01,1.71-1.07,2.56-2.13,2.57-.69,0-1.24-.26-1.61-.88h-.02l-.04,.78h-.74c.02-.32,.04-.8,.03-1.23l-.04-5.77Zm.89,5.08c0,.11,.01,.22,.04,.31,.16,.6,.68,1.01,1.31,1.01,.92,0,1.45-.75,1.44-1.84,0-.96-.51-1.77-1.44-1.76-.58,0-1.13,.42-1.31,1.07-.03,.11-.05,.22-.05,.36v.85Z"/>
        <path class="cls-3" d="M174.15,104.16c0-.56,0-1.04-.03-1.49h.76s.03,.95,.03,.95h.03c.22-.64,.76-1.04,1.34-1.03,.09,0,.16,.01,.24,.02v.82c-.1-.02-.18-.02-.3-.02-.61,0-1.05,.45-1.17,1.1-.02,.12-.03,.26-.03,.4l-.02,2.55h-.87s.02-3.29,.02-3.29Z"/>
        <path class="cls-3" d="M180.69,106.41c0,.41,0,.82,.04,1.15l-.78-.02-.06-.6h-.03c-.28,.37-.8,.69-1.48,.68-.97-.02-1.45-.71-1.43-1.4,.03-1.15,1.07-1.76,2.91-1.71v-.1c.01-.38-.08-1.11-1.06-1.12-.45,0-.92,.11-1.26,.33l-.18-.59c.4-.24,.99-.39,1.59-.38,1.46,.03,1.79,1.04,1.77,1.98l-.04,1.79Zm-.81-1.31c-.95-.04-2.03,.1-2.05,1.03-.01,.57,.35,.84,.79,.85,.63,.01,1.05-.37,1.19-.77,.03-.1,.04-.2,.04-.28l.02-.83Z"/>
        <path class="cls-3" d="M182.16,104.11c.02-.5,.03-.9,.02-1.29l.77,.03v.79s.03,0,.03,0c.26-.43,.83-.85,1.61-.82,.66,.03,1.67,.47,1.59,2.1l-.13,2.84-.87-.04,.12-2.75c.03-.77-.22-1.42-1.04-1.46-.56-.02-1.02,.36-1.2,.83-.04,.11-.07,.25-.08,.4l-.13,2.87-.87-.04,.15-3.48Z"/>
        <path class="cls-3" d="M192.02,101.16l-.41,5.75c-.03,.42-.04,.91-.05,1.23l-.77-.06,.02-.83h-.03c-.29,.51-.89,.87-1.67,.82-1.15-.08-1.97-1.12-1.87-2.57,.1-1.58,1.17-2.47,2.31-2.39,.74,.05,1.19,.43,1.39,.82h.02l.2-2.84,.85,.06Zm-1.15,4.1c0-.11,0-.26-.01-.37-.09-.55-.53-1.03-1.18-1.08-.89-.06-1.48,.68-1.56,1.73-.07,.96,.36,1.79,1.28,1.86,.58,.04,1.14-.31,1.34-.94,.04-.12,.06-.23,.07-.37l.06-.83Z"/>
        <path class="cls-3" d="M192.92,107.39c.25,.18,.68,.41,1.11,.45,.62,.06,.94-.21,.99-.61,.04-.41-.18-.66-.78-.96-.83-.4-1.18-.91-1.13-1.48,.08-.76,.77-1.33,1.78-1.22,.48,.05,.89,.22,1.13,.41l-.27,.61c-.18-.14-.5-.34-.94-.39-.51-.05-.81,.21-.85,.57-.04,.39,.21,.6,.81,.91,.78,.39,1.17,.85,1.1,1.55-.09,.84-.81,1.37-1.92,1.25-.52-.05-.99-.24-1.3-.47l.27-.63Z"/>
      </g>
    </g>
  </g>
</svg>